<svg width="149" height="72" viewBox="0 0 149 72" fill="none" xmlns="http://www.w3.org/2000/svg">
<path d="M131.583 55.4066H127.998V47.7678H120.373L121.589 44.9873C121.696 44.7551 121.928 44.5884 122.196 44.5884H127.998V40.7661C127.998 40.5041 127.783 40.2898 127.521 40.2898H120.284C120.022 40.2898 119.802 40.5041 119.802 40.7661V55.4125H116.222V40.7661C116.222 38.7715 117.818 37.158 119.796 37.0985V37.0925H128.01V37.0985C129.987 37.158 131.583 38.7715 131.583 40.7661V55.4066V55.4066ZM131.583 31.2518C131.583 33.2463 129.987 34.8598 128.01 34.9134H117.562C115.578 34.8658 113.994 33.2463 113.994 31.2518V16.5934H117.574V31.2518C117.574 31.5078 117.782 31.7222 118.044 31.7222H120.999V16.5934H124.585V31.7222H127.533C127.795 31.7222 128.01 31.5078 128.01 31.2518V16.5934H131.595V31.2518H131.583ZM113.994 40.7601V44.1479C113.994 45.9757 112.612 47.4761 110.879 47.7618L114.905 55.4125H110.76L107.013 47.7737H102.468L103.684 44.9933C103.773 44.7611 104.017 44.5944 104.285 44.5944H109.938C110.194 44.5944 110.414 44.3741 110.414 44.1121V40.7661C110.414 40.5041 110.2 40.2898 109.938 40.2898H102.456C102.182 40.2898 101.968 40.5041 101.968 40.7661V55.4125H98.3942V40.7661C98.3942 38.7775 99.9846 37.158 101.968 37.0985V37.0925H110.42V37.0985C112.398 37.1521 113.994 38.7656 113.994 40.7601ZM112.088 34.9134H101.968C99.9846 34.8539 98.3942 33.2404 98.3942 31.2578V20.261C98.3942 18.2664 99.9846 16.6529 101.968 16.5994V16.5934H112.088V19.7847H102.456C102.188 19.7847 101.968 20.005 101.968 20.261V24.0893H111.201V27.2746H101.968V31.2578C101.968 31.5138 102.188 31.7281 102.456 31.7281H112.088V34.9134ZM96.4822 55.4066H86.0287C84.0452 55.353 82.4608 53.7455 82.4608 51.745V40.7601C82.4608 38.7715 84.0452 37.1521 86.0287 37.0925V37.0866H96.4822V40.2838H86.5111C86.2491 40.2838 86.0406 40.4981 86.0406 40.7601V44.5825H95.6126V47.7618H86.0406V51.745C86.0406 52.0069 86.255 52.2213 86.5111 52.2213H96.4822V55.4066ZM96.4822 33.544C96.4822 34.2942 95.8746 34.9134 95.1241 34.9134H94.0877C93.6052 34.9134 93.1764 34.6753 92.9083 34.324L86.0346 23.6725V34.9194H82.4548V17.9568C82.4548 17.2126 83.0683 16.5874 83.8248 16.5874H84.8553C85.3437 16.5874 85.7725 16.8256 86.0406 17.1888L92.9143 27.8105V16.5874H96.4882V33.544H96.4822ZM70.4824 69.6839H2.31109V2.3101H70.4824V69.6839ZM143.032 72V0H0V72H143.032Z" fill="white"/>
<path d="M21.3955 20.6897C21.3955 20.6897 22.0388 22.8927 22.1043 23.1546C22.1222 21.9281 23.242 21.0648 24.6715 21.3506C26.0832 21.6364 28.3288 22.0948 29.2461 22.2735C33.3203 23.0832 35.2323 23.8036 36.7333 27.2866L41.5163 38.3906C40.4799 37.7237 39.1159 37.4617 35.6552 37.9142L34.8034 38.0214C34.8034 38.0214 32.3851 31.4543 31.6644 29.5014C30.9317 27.5367 30.0859 26.3459 27.745 26.0542C27.0898 25.9827 22.7536 25.4528 22.7536 25.4528L26.6848 39.0514L17.9825 40.1648L13.6879 19.1596L21.3955 20.6897ZM53.8937 29.4776C55.0731 29.6086 55.7998 30.1742 56.187 30.8053C56.3001 30.984 56.7111 31.6448 56.7111 31.6448L43.6487 31.2578L42.1477 28.1499C42.1477 28.1499 52.9169 29.3645 53.8937 29.4776ZM58.1109 33.9252L59.3975 36.0269L47.0558 38.2953L45.388 34.8659L58.1109 33.9252ZM61.9409 40.1827C61.9409 40.1827 52.7858 44.2432 50.4331 45.2911C47.5382 46.5831 44.971 46.4283 44.0597 44.3027C43.6308 43.3203 41.7605 43.3739 38.1807 44.4278L19.9302 49.7505L18.6555 43.5287C18.6555 43.5287 33.2607 40.8495 36.6261 40.2243C39.9974 39.5992 42.1894 39.9624 43.0888 42.0581C43.327 42.594 43.4402 42.8738 43.4402 42.8738L60.5232 37.8726L61.9409 40.1827ZM12.5264 54.7637C12.7825 56.7225 14.6409 57.5858 16.5648 56.9011C18.3875 56.2462 33.5109 50.2923 35.8875 49.3635C39.1218 48.1192 40.8968 47.9048 41.4865 49.4231C42.4276 51.8522 45.2688 51.9653 48.6521 50.0423C51.7137 48.3097 64.5081 40.9269 64.5081 40.9269C64.5081 40.9269 58.6112 31.621 57.9977 30.6386C57.0864 29.1978 55.9249 28.0725 53.3994 27.6141C51.6184 27.2985 37.7757 24.8217 37.7757 24.8217C36.9596 23.0177 34.6843 21.1125 31.3725 20.2849L10.9003 15.1705C8.86912 14.6585 7.29067 16.0993 7.58253 18.1832C7.58253 18.1832 12.2702 52.8406 12.5264 54.7637Z" fill="white"/>
<path d="M146.397 69.7018H146.844C147.296 69.7018 147.445 69.5708 147.445 69.3029C147.445 69.0707 147.326 68.9337 146.903 68.9337H146.391V69.7018H146.397ZM146.397 71.0771H146.022V68.6301H146.957C147.541 68.6301 147.833 68.8444 147.833 69.3267C147.833 69.7613 147.553 69.9578 147.189 69.9935L147.886 71.0771H147.481L146.82 70.0173H146.397V71.0771V71.0771ZM146.85 68.0704C145.861 68.0704 145.099 68.8325 145.099 69.8447C145.099 70.8806 145.861 71.6368 146.85 71.6368C147.821 71.6368 148.583 70.8866 148.583 69.8447C148.583 68.8325 147.821 68.0704 146.85 68.0704ZM146.85 67.7251C148.005 67.7251 149 68.6301 149 69.8447C149 71.0771 148.005 71.9762 146.85 71.9762C145.682 71.9762 144.688 71.0771 144.688 69.8447C144.688 68.6301 145.682 67.7251 146.85 67.7251Z" fill="white"/>
</svg>
