<svg width="68" height="51" viewBox="0 0 68 51" fill="none" xmlns="http://www.w3.org/2000/svg">
<path d="M16.5335 6.82008C16.5335 6.82008 17.3016 9.49109 17.3798 9.80872C17.4011 8.32162 18.7381 7.27488 20.4449 7.62138C22.1303 7.96789 24.8114 8.52375 25.9066 8.74032C30.7709 9.72209 33.0537 10.5956 34.8458 14.8187L40.5564 28.2819C39.319 27.4734 37.6904 27.1558 33.5586 27.7044L32.5417 27.8344C32.5417 27.8344 29.6544 19.8719 28.7939 17.5041C27.9191 15.1218 26.9093 13.6781 24.1144 13.3243C23.3322 13.2377 18.1549 12.5952 18.1549 12.5952L22.8486 29.0832L12.4586 30.4332L7.33112 4.9576L16.5335 6.82008ZM55.3343 17.468C56.7424 17.6268 57.61 18.3126 58.0722 19.0778C58.2074 19.2944 58.6981 20.0957 58.6981 20.0957L43.1024 19.6337L41.3102 15.8654C41.3102 15.8654 54.168 17.3381 55.3343 17.468ZM60.3693 22.8678L61.9054 25.416L47.1702 28.1592L45.1789 24.0011L60.3693 22.8678ZM64.942 30.4476C64.942 30.4476 54.0115 35.3709 51.2024 36.6415C47.7462 38.208 44.6811 38.0203 43.5931 35.4431C43.081 34.252 40.848 34.317 36.5739 35.5947L14.7912 42.0484L13.2693 34.5047C13.2693 34.5047 30.7069 31.2561 34.7249 30.4982C38.7501 29.7402 41.3671 30.1805 42.441 32.7216C42.7254 33.3713 42.8606 33.7106 42.8606 33.7106L63.2566 27.6467L64.942 30.4476ZM5.93725 48.1268C6.25016 50.5018 8.46186 51.5485 10.7589 50.7184C12.935 49.9243 30.9913 42.7054 33.8289 41.5792C37.6904 40.0704 39.8097 39.8106 40.5137 41.6514C41.6374 44.5967 45.0296 44.7339 49.069 42.4022C52.7243 40.3015 68 31.35 68 31.35C68 31.35 60.9595 20.0668 60.227 18.8757C59.139 17.1287 57.7522 15.7643 54.7369 15.2085C52.6105 14.8259 36.0832 11.8228 36.0832 11.8228C35.1089 9.63546 32.3923 7.32541 28.4383 6.31476L4.0029 0.12814C1.57074 -0.499906 -0.306714 1.25429 0.0417533 3.78092C0.0417533 3.78092 5.63145 45.8023 5.93725 48.1268Z" fill="black"/>
</svg>
